<mxfile host="app.diagrams.net" modified="2023-11-16T18:54:16.019Z" agent="Mozilla/5.0 (Windows NT 10.0; Win64; x64) AppleWebKit/537.36 (KHTML, like Gecko) Chrome/119.0.0.0 Safari/537.36" etag="Zcnxhbv93t4QhLQAsHVl" version="22.1.2" type="github">
  <diagram name="페이지-1" id="Np0-8j3lZ_INTy2ZnYN4">
    <mxGraphModel dx="1434" dy="750" grid="1" gridSize="10" guides="1" tooltips="1" connect="1" arrows="1" fold="1" page="1" pageScale="1" pageWidth="827" pageHeight="1169" math="0" shadow="0">
      <root>
        <mxCell id="0" />
        <mxCell id="1" parent="0" />
        <mxCell id="GQmYFKglvcywQy4LVJvo-47" style="edgeStyle=orthogonalEdgeStyle;rounded=0;orthogonalLoop=1;jettySize=auto;html=1;exitX=0.5;exitY=1;exitDx=0;exitDy=0;entryX=0.5;entryY=0;entryDx=0;entryDy=0;" parent="1" source="GQmYFKglvcywQy4LVJvo-2" edge="1">
          <mxGeometry relative="1" as="geometry">
            <mxPoint x="219.62" y="140" as="targetPoint" />
          </mxGeometry>
        </mxCell>
        <mxCell id="GQmYFKglvcywQy4LVJvo-2" value="" style="ellipse;whiteSpace=wrap;html=1;aspect=fixed;fillColor=#121212;" parent="1" vertex="1">
          <mxGeometry x="205" y="80" width="30" height="30" as="geometry" />
        </mxCell>
        <mxCell id="GQmYFKglvcywQy4LVJvo-59" style="edgeStyle=orthogonalEdgeStyle;rounded=0;orthogonalLoop=1;jettySize=auto;html=1;exitX=0.5;exitY=1;exitDx=0;exitDy=0;entryX=0.5;entryY=0;entryDx=0;entryDy=0;" parent="1" source="GQmYFKglvcywQy4LVJvo-60" target="GQmYFKglvcywQy4LVJvo-61" edge="1">
          <mxGeometry relative="1" as="geometry" />
        </mxCell>
        <mxCell id="GQmYFKglvcywQy4LVJvo-60" value="판매자 정보 DB 접근" style="rounded=1;whiteSpace=wrap;html=1;" parent="1" vertex="1">
          <mxGeometry x="470" y="220" width="120" height="40" as="geometry" />
        </mxCell>
        <mxCell id="GQmYFKglvcywQy4LVJvo-64" value="불일치" style="edgeStyle=orthogonalEdgeStyle;rounded=0;orthogonalLoop=1;jettySize=auto;html=1;exitX=1;exitY=0.5;exitDx=0;exitDy=0;entryX=1;entryY=0.5;entryDx=0;entryDy=0;" parent="1" source="GQmYFKglvcywQy4LVJvo-61" edge="1">
          <mxGeometry x="-0.9207" relative="1" as="geometry">
            <Array as="points">
              <mxPoint x="630" y="305" />
              <mxPoint x="630" y="160" />
            </Array>
            <mxPoint as="offset" />
            <mxPoint x="280" y="160" as="targetPoint" />
          </mxGeometry>
        </mxCell>
        <mxCell id="GQmYFKglvcywQy4LVJvo-69" value="일치" style="edgeStyle=orthogonalEdgeStyle;rounded=0;orthogonalLoop=1;jettySize=auto;html=1;exitX=0.5;exitY=1;exitDx=0;exitDy=0;entryX=0.5;entryY=0;entryDx=0;entryDy=0;" parent="1" source="GQmYFKglvcywQy4LVJvo-61" target="GQmYFKglvcywQy4LVJvo-70" edge="1">
          <mxGeometry x="-0.75" relative="1" as="geometry">
            <mxPoint x="220" y="380" as="targetPoint" />
            <mxPoint as="offset" />
          </mxGeometry>
        </mxCell>
        <mxCell id="GQmYFKglvcywQy4LVJvo-61" value="" style="rhombus;whiteSpace=wrap;html=1;" parent="1" vertex="1">
          <mxGeometry x="502.5" y="280" width="55" height="50" as="geometry" />
        </mxCell>
        <mxCell id="GQmYFKglvcywQy4LVJvo-75" style="edgeStyle=orthogonalEdgeStyle;rounded=0;orthogonalLoop=1;jettySize=auto;html=1;exitX=0.5;exitY=1;exitDx=0;exitDy=0;entryX=0;entryY=0.5;entryDx=0;entryDy=0;" parent="1" source="GQmYFKglvcywQy4LVJvo-70" target="GQmYFKglvcywQy4LVJvo-77" edge="1">
          <mxGeometry relative="1" as="geometry">
            <mxPoint x="152" y="450" as="targetPoint" />
          </mxGeometry>
        </mxCell>
        <mxCell id="GQmYFKglvcywQy4LVJvo-70" value="등록 상품 불러오기" style="rounded=1;whiteSpace=wrap;html=1;" parent="1" vertex="1">
          <mxGeometry x="160" y="370" width="120" height="40" as="geometry" />
        </mxCell>
        <mxCell id="GQmYFKglvcywQy4LVJvo-78" style="edgeStyle=orthogonalEdgeStyle;rounded=0;orthogonalLoop=1;jettySize=auto;html=1;exitX=0.5;exitY=1;exitDx=0;exitDy=0;entryX=1;entryY=0.5;entryDx=0;entryDy=0;" parent="1" source="GQmYFKglvcywQy4LVJvo-77" target="GQmYFKglvcywQy4LVJvo-80" edge="1">
          <mxGeometry relative="1" as="geometry">
            <mxPoint x="530" y="520" as="targetPoint" />
          </mxGeometry>
        </mxCell>
        <mxCell id="GQmYFKglvcywQy4LVJvo-77" value="등록 상품 접근" style="rounded=1;whiteSpace=wrap;html=1;" parent="1" vertex="1">
          <mxGeometry x="470" y="410" width="120" height="40" as="geometry" />
        </mxCell>
        <mxCell id="GQmYFKglvcywQy4LVJvo-91" style="edgeStyle=orthogonalEdgeStyle;rounded=0;orthogonalLoop=1;jettySize=auto;html=1;exitX=0.5;exitY=1;exitDx=0;exitDy=0;entryX=0.5;entryY=0;entryDx=0;entryDy=0;" parent="1" source="GQmYFKglvcywQy4LVJvo-80" edge="1">
          <mxGeometry relative="1" as="geometry">
            <mxPoint x="220" y="530" as="targetPoint" />
          </mxGeometry>
        </mxCell>
        <mxCell id="GQmYFKglvcywQy4LVJvo-80" value="등록 상품 확인" style="rounded=1;whiteSpace=wrap;html=1;" parent="1" vertex="1">
          <mxGeometry x="160" y="460" width="120" height="40" as="geometry" />
        </mxCell>
        <mxCell id="YWFhQphpudbZy5z2lYyf-2" style="edgeStyle=orthogonalEdgeStyle;rounded=0;orthogonalLoop=1;jettySize=auto;html=1;exitX=0.5;exitY=1;exitDx=0;exitDy=0;entryX=0;entryY=0.5;entryDx=0;entryDy=0;" edge="1" parent="1" source="YWFhQphpudbZy5z2lYyf-1" target="GQmYFKglvcywQy4LVJvo-60">
          <mxGeometry relative="1" as="geometry" />
        </mxCell>
        <mxCell id="YWFhQphpudbZy5z2lYyf-1" value="로그인" style="rounded=1;whiteSpace=wrap;html=1;" vertex="1" parent="1">
          <mxGeometry x="160" y="140" width="120" height="40" as="geometry" />
        </mxCell>
        <mxCell id="YWFhQphpudbZy5z2lYyf-8" style="edgeStyle=orthogonalEdgeStyle;rounded=0;orthogonalLoop=1;jettySize=auto;html=1;exitX=0.25;exitY=1;exitDx=0;exitDy=0;entryX=0.5;entryY=0;entryDx=0;entryDy=0;" edge="1" parent="1" source="YWFhQphpudbZy5z2lYyf-4" target="YWFhQphpudbZy5z2lYyf-5">
          <mxGeometry relative="1" as="geometry">
            <Array as="points">
              <mxPoint x="150" y="540" />
            </Array>
          </mxGeometry>
        </mxCell>
        <mxCell id="YWFhQphpudbZy5z2lYyf-9" style="edgeStyle=orthogonalEdgeStyle;rounded=0;orthogonalLoop=1;jettySize=auto;html=1;exitX=0.75;exitY=1;exitDx=0;exitDy=0;entryX=0.5;entryY=0;entryDx=0;entryDy=0;" edge="1" parent="1" source="YWFhQphpudbZy5z2lYyf-4" target="YWFhQphpudbZy5z2lYyf-6">
          <mxGeometry relative="1" as="geometry">
            <Array as="points">
              <mxPoint x="290" y="540" />
            </Array>
          </mxGeometry>
        </mxCell>
        <mxCell id="YWFhQphpudbZy5z2lYyf-4" value="" style="rounded=0;whiteSpace=wrap;html=1;fillColor=#121212;" vertex="1" parent="1">
          <mxGeometry x="110" y="530" width="220" height="10" as="geometry" />
        </mxCell>
        <mxCell id="YWFhQphpudbZy5z2lYyf-11" style="edgeStyle=orthogonalEdgeStyle;rounded=0;orthogonalLoop=1;jettySize=auto;html=1;exitX=0.5;exitY=1;exitDx=0;exitDy=0;entryX=0;entryY=0.5;entryDx=0;entryDy=0;" edge="1" parent="1" source="YWFhQphpudbZy5z2lYyf-5" target="YWFhQphpudbZy5z2lYyf-10">
          <mxGeometry relative="1" as="geometry" />
        </mxCell>
        <mxCell id="YWFhQphpudbZy5z2lYyf-5" value="상품 정보 수정" style="rounded=1;whiteSpace=wrap;html=1;" vertex="1" parent="1">
          <mxGeometry x="90" y="590" width="120" height="40" as="geometry" />
        </mxCell>
        <mxCell id="YWFhQphpudbZy5z2lYyf-22" style="edgeStyle=orthogonalEdgeStyle;rounded=0;orthogonalLoop=1;jettySize=auto;html=1;exitX=0.5;exitY=1;exitDx=0;exitDy=0;entryX=0;entryY=0.5;entryDx=0;entryDy=0;" edge="1" parent="1" source="YWFhQphpudbZy5z2lYyf-6" target="YWFhQphpudbZy5z2lYyf-21">
          <mxGeometry relative="1" as="geometry" />
        </mxCell>
        <mxCell id="YWFhQphpudbZy5z2lYyf-6" value="상품 삭제" style="rounded=1;whiteSpace=wrap;html=1;" vertex="1" parent="1">
          <mxGeometry x="230" y="590" width="120" height="40" as="geometry" />
        </mxCell>
        <mxCell id="YWFhQphpudbZy5z2lYyf-12" style="edgeStyle=orthogonalEdgeStyle;rounded=0;orthogonalLoop=1;jettySize=auto;html=1;exitX=0.5;exitY=1;exitDx=0;exitDy=0;entryX=1;entryY=0.5;entryDx=0;entryDy=0;" edge="1" parent="1" source="YWFhQphpudbZy5z2lYyf-10" target="YWFhQphpudbZy5z2lYyf-17">
          <mxGeometry relative="1" as="geometry">
            <mxPoint x="530" y="700" as="targetPoint" />
          </mxGeometry>
        </mxCell>
        <mxCell id="YWFhQphpudbZy5z2lYyf-10" value="상품 정보 수정 반영" style="rounded=1;whiteSpace=wrap;html=1;" vertex="1" parent="1">
          <mxGeometry x="470" y="630" width="120" height="40" as="geometry" />
        </mxCell>
        <mxCell id="YWFhQphpudbZy5z2lYyf-20" style="edgeStyle=orthogonalEdgeStyle;rounded=0;orthogonalLoop=1;jettySize=auto;html=1;exitX=0.5;exitY=1;exitDx=0;exitDy=0;entryX=0.5;entryY=0;entryDx=0;entryDy=0;" edge="1" parent="1" source="YWFhQphpudbZy5z2lYyf-17" target="YWFhQphpudbZy5z2lYyf-18">
          <mxGeometry relative="1" as="geometry" />
        </mxCell>
        <mxCell id="YWFhQphpudbZy5z2lYyf-17" value="수정 결과 확인" style="rounded=1;whiteSpace=wrap;html=1;" vertex="1" parent="1">
          <mxGeometry x="90" y="680" width="120" height="40" as="geometry" />
        </mxCell>
        <mxCell id="YWFhQphpudbZy5z2lYyf-18" value="" style="ellipse;whiteSpace=wrap;html=1;aspect=fixed;" vertex="1" parent="1">
          <mxGeometry x="135" y="760" width="30" height="30" as="geometry" />
        </mxCell>
        <mxCell id="YWFhQphpudbZy5z2lYyf-19" value="" style="ellipse;whiteSpace=wrap;html=1;aspect=fixed;fillColor=#121212;" vertex="1" parent="1">
          <mxGeometry x="140" y="765" width="20" height="20" as="geometry" />
        </mxCell>
        <mxCell id="YWFhQphpudbZy5z2lYyf-26" style="edgeStyle=orthogonalEdgeStyle;rounded=0;orthogonalLoop=1;jettySize=auto;html=1;exitX=1;exitY=0.5;exitDx=0;exitDy=0;entryX=0;entryY=0.5;entryDx=0;entryDy=0;" edge="1" parent="1" source="YWFhQphpudbZy5z2lYyf-21" target="YWFhQphpudbZy5z2lYyf-23">
          <mxGeometry relative="1" as="geometry" />
        </mxCell>
        <mxCell id="YWFhQphpudbZy5z2lYyf-21" value="상품 삭제 요청" style="rounded=1;whiteSpace=wrap;html=1;" vertex="1" parent="1">
          <mxGeometry x="470" y="730" width="120" height="40" as="geometry" />
        </mxCell>
        <mxCell id="YWFhQphpudbZy5z2lYyf-25" style="edgeStyle=orthogonalEdgeStyle;rounded=0;orthogonalLoop=1;jettySize=auto;html=1;exitX=0.5;exitY=1;exitDx=0;exitDy=0;entryX=0.5;entryY=0;entryDx=0;entryDy=0;" edge="1" parent="1" source="YWFhQphpudbZy5z2lYyf-23" target="YWFhQphpudbZy5z2lYyf-24">
          <mxGeometry relative="1" as="geometry" />
        </mxCell>
        <mxCell id="YWFhQphpudbZy5z2lYyf-23" value="상품 삭제 요청 확인" style="rounded=1;whiteSpace=wrap;html=1;" vertex="1" parent="1">
          <mxGeometry x="760" y="730" width="120" height="40" as="geometry" />
        </mxCell>
        <mxCell id="YWFhQphpudbZy5z2lYyf-24" value="" style="rhombus;whiteSpace=wrap;html=1;" vertex="1" parent="1">
          <mxGeometry x="792.5" y="820" width="55" height="50" as="geometry" />
        </mxCell>
      </root>
    </mxGraphModel>
  </diagram>
</mxfile>
